<svg width="20" height="20" viewBox="0 0 18.1269 6.87981" fill="none" xmlns="http://www.w3.org/2000/svg">
<path d="M17.8515 4.10319L15.3515 6.60319C15.1754 6.77931 14.9365 6.87825 14.6875 6.87825C14.4384 6.87825 14.1995 6.77931 14.0234 6.60319C13.8473 6.42707 13.7483 6.1882 13.7483 5.93913C13.7483 5.69005 13.8473 5.45118 14.0234 5.27506L14.9226 4.37741H3.20386L4.10386 5.27663C4.27998 5.45275 4.37893 5.69162 4.37893 5.94069C4.37893 6.18976 4.27998 6.42863 4.10386 6.60475C3.92774 6.78087 3.68887 6.87981 3.4398 6.87981C3.19073 6.87981 2.95186 6.78087 2.77574 6.60475L0.275739 4.10475C0.188339 4.01765 0.118992 3.91416 0.0716747 3.80021C0.0243571 3.68625 0 3.56408 0 3.44069C0 3.3173 0.0243571 3.19513 0.0716747 3.08117C0.118992 2.96722 0.188339 2.86372 0.275739 2.77663L2.77574 0.276626C2.95186 0.100506 3.19073 0.00156224 3.4398 0.00156224C3.56313 0.00156224 3.68525 0.0258536 3.79919 0.0730491C3.91313 0.120245 4.01666 0.18942 4.10386 0.276626C4.19107 0.363832 4.26025 0.467361 4.30744 0.581301C4.35464 0.695241 4.37893 0.817361 4.37893 0.940689C4.37893 1.06402 4.35464 1.18614 4.30744 1.30008C4.26025 1.41402 4.19107 1.51755 4.10386 1.60475L3.20386 2.50241H14.9226L14.0226 1.60319C13.9354 1.51598 13.8662 1.41245 13.819 1.29851C13.7718 1.18457 13.7476 1.06245 13.7476 0.939126C13.7476 0.815798 13.7718 0.693678 13.819 0.579738C13.8662 0.465798 13.9354 0.362269 14.0226 0.275064C14.1987 0.0989432 14.4376 0 14.6867 0C14.81 0 14.9321 0.0242913 15.0461 0.0714868C15.16 0.118682 15.2635 0.187858 15.3507 0.275064L17.8507 2.77506C17.9382 2.86211 18.0076 2.96556 18.055 3.07949C18.1024 3.19342 18.1268 3.31558 18.1269 3.43896C18.1269 3.56235 18.1027 3.68454 18.0554 3.79852C18.0082 3.91251 17.9389 4.01604 17.8515 4.10319Z" fill="currentColor"/>
</svg>
