<svg width="20" height="20" viewBox="0 0 20 20" fill="none" xmlns="http://www.w3.org/2000/svg">
<path d="M10 1.875C8.39303 1.875 6.82214 2.35152 5.486 3.24431C4.14985 4.1371 3.10844 5.40605 2.49348 6.8907C1.87852 8.37535 1.71762 10.009 2.03112 11.5851C2.34463 13.1612 3.11846 14.6089 4.25476 15.7452C5.39106 16.8815 6.8388 17.6554 8.4149 17.9689C9.99099 18.2824 11.6247 18.1215 13.1093 17.5065C14.594 16.8916 15.8629 15.8502 16.7557 14.514C17.6485 13.1779 18.125 11.607 18.125 10C18.1227 7.84581 17.266 5.78051 15.7427 4.25727C14.2195 2.73403 12.1542 1.87727 10 1.875ZM13.125 10.625H8.3836L9.81719 12.0578C9.87526 12.1159 9.92132 12.1848 9.95275 12.2607C9.98418 12.3366 10.0004 12.4179 10.0004 12.5C10.0004 12.5821 9.98418 12.6634 9.95275 12.7393C9.92132 12.8152 9.87526 12.8841 9.81719 12.9422C9.75912 13.0003 9.69018 13.0463 9.61431 13.0777C9.53844 13.1092 9.45713 13.1253 9.375 13.1253C9.29288 13.1253 9.21156 13.1092 9.13569 13.0777C9.05982 13.0463 8.99088 13.0003 8.93282 12.9422L6.43282 10.4422C6.37471 10.3841 6.32861 10.3152 6.29715 10.2393C6.2657 10.1635 6.24951 10.0821 6.24951 10C6.24951 9.91787 6.2657 9.83654 6.29715 9.76066C6.32861 9.68479 6.37471 9.61586 6.43282 9.55781L8.93282 7.05781C9.05009 6.94054 9.20915 6.87465 9.375 6.87465C9.54086 6.87465 9.69992 6.94054 9.81719 7.05781C9.93447 7.17509 10.0004 7.33415 10.0004 7.5C10.0004 7.66585 9.93447 7.82491 9.81719 7.94219L8.3836 9.375H13.125C13.2908 9.375 13.4497 9.44085 13.5669 9.55806C13.6842 9.67527 13.75 9.83424 13.75 10C13.75 10.1658 13.6842 10.3247 13.5669 10.4419C13.4497 10.5592 13.2908 10.625 13.125 10.625Z" fill="currentColor"/>
</svg>
