<svg width="20" height="20" viewBox="0 0 20 20" fill="none" xmlns="http://www.w3.org/2000/svg">
<path d="M16.4672 3.06677L6.2914 1.2699C5.96496 1.21245 5.62907 1.28701 5.3576 1.47718C5.08612 1.66734 4.90129 1.95754 4.84374 2.28396L2.51953 15.4871C2.4911 15.6488 2.49482 15.8146 2.53049 15.9749C2.56615 16.1352 2.63305 16.2869 2.72737 16.4214C2.82169 16.5558 2.94157 16.6703 3.08018 16.7584C3.21878 16.8465 3.37338 16.9064 3.53515 16.9347L13.7109 18.7316C13.8727 18.7602 14.0386 18.7565 14.199 18.7209C14.3594 18.6853 14.5112 18.6184 14.6457 18.5241C14.7802 18.4298 14.8948 18.3098 14.983 18.1712C15.0711 18.0325 15.1311 17.8778 15.1594 17.716L17.4836 4.51287C17.5405 4.18632 17.4654 3.85054 17.2748 3.57935C17.0842 3.30816 16.7937 3.12379 16.4672 3.06677ZM10.5859 10.2785C10.5604 10.4231 10.4848 10.5541 10.3724 10.6485C10.26 10.7429 10.1179 10.7947 9.97109 10.7949C9.93443 10.7949 9.89784 10.7917 9.86171 10.7855L6.61953 10.2129C6.46544 10.175 6.33154 10.0799 6.24498 9.94689C6.15843 9.8139 6.12569 9.65297 6.15342 9.49674C6.18115 9.3405 6.26726 9.20066 6.3943 9.10558C6.52134 9.0105 6.67978 8.9673 6.83749 8.98474L10.0781 9.55427C10.159 9.56843 10.2364 9.5984 10.3057 9.64247C10.375 9.68654 10.435 9.74384 10.4822 9.8111C10.5293 9.87837 10.5628 9.95427 10.5806 10.0345C10.5984 10.1147 10.6002 10.1976 10.5859 10.2785ZM14.2578 8.38943C14.2323 8.53388 14.1568 8.66477 14.0446 8.75917C13.9323 8.85358 13.7904 8.9055 13.6437 8.90584C13.6068 8.90591 13.5699 8.90251 13.5336 8.89568L7.04921 7.75115C6.88594 7.72224 6.74083 7.62966 6.64582 7.49377C6.55081 7.35788 6.51367 7.18981 6.54257 7.02654C6.57148 6.86326 6.66406 6.71816 6.79995 6.62315C6.93584 6.52813 7.10391 6.49099 7.26718 6.5199L13.7516 7.66521C13.8326 7.67927 13.91 7.70918 13.9794 7.75321C14.0488 7.79724 14.1089 7.85453 14.1561 7.9218C14.2033 7.98908 14.2369 8.06501 14.2547 8.14525C14.2726 8.22549 14.2744 8.30847 14.2602 8.38943H14.2578ZM14.6914 5.92693C14.6659 6.07151 14.5903 6.2025 14.4779 6.29693C14.3654 6.39135 14.2234 6.44318 14.0766 6.44334C14.0399 6.44329 14.0033 6.44015 13.9672 6.43396L7.48281 5.28865C7.40012 5.27648 7.32071 5.24785 7.24928 5.20445C7.17785 5.16105 7.11585 5.10377 7.06695 5.03599C7.01805 4.9682 6.98324 4.8913 6.96458 4.80983C6.94592 4.72836 6.9438 4.64398 6.95832 4.56167C6.97285 4.47936 7.00374 4.40081 7.04916 4.33065C7.09459 4.26049 7.15362 4.20015 7.22277 4.15321C7.29192 4.10626 7.36978 4.07367 7.45175 4.05734C7.53372 4.04102 7.61814 4.0413 7.69999 4.05818L14.1844 5.20271C14.2654 5.21668 14.3429 5.24652 14.4124 5.29051C14.482 5.3345 14.5421 5.39178 14.5894 5.45907C14.6367 5.52635 14.6703 5.60231 14.6882 5.6826C14.7061 5.76288 14.708 5.84592 14.6937 5.92693H14.6914Z" fill="currentColor"/>
</svg>
