<svg width="20" height="20" viewBox="0 0 20 20" fill="none" xmlns="http://www.w3.org/2000/svg">
<path d="M17.8813 2.04609C17.7844 1.96247 17.6666 1.90686 17.5405 1.88524C17.4144 1.86363 17.2848 1.87683 17.1656 1.92343L1.33281 8.11952C1.10842 8.20678 0.918455 8.36456 0.791503 8.56913C0.66455 8.77369 0.607486 9.01396 0.628901 9.25376C0.650317 9.49356 0.749053 9.71991 0.910244 9.89874C1.07144 10.0776 1.28636 10.1992 1.52266 10.2453L5.625 11.0508V15.625C5.62419 15.8741 5.69823 16.1178 5.83753 16.3244C5.97683 16.531 6.17496 16.6909 6.40625 16.7836C6.63718 16.8779 6.89114 16.9005 7.13511 16.8486C7.37908 16.7966 7.60177 16.6724 7.77422 16.4922L9.75234 14.4406L12.8906 17.1875C13.117 17.3883 13.4091 17.4995 13.7117 17.5C13.8443 17.4999 13.9761 17.4791 14.1023 17.4383C14.3086 17.3728 14.494 17.2545 14.6403 17.0951C14.7865 16.9357 14.8885 16.7408 14.9359 16.5297L18.107 2.73437C18.1354 2.60995 18.1294 2.48017 18.0896 2.35892C18.0498 2.23767 17.9778 2.12953 17.8813 2.04609ZM13.7133 16.25L7.25391 10.5859L16.5508 3.92265L13.7133 16.25Z" fill="currentColor"/>
</svg>
