<svg width="40" height="40" viewBox="0 0 40 40" fill="none" xmlns="http://www.w3.org/2000/svg">
<g id="au-logo">
<g clip-path="url(#clip0_165_399)">
<path id="Vector" d="M0.00431643 0.000654223L39.998 0L39.997 26.6477L40 35.5048C39.9988 36.9315 39.9949 38.363 39.9956 39.7898C39.9956 39.9004 40.0064 39.9301 39.9484 39.9908L0 40L0.00431643 0.000654223Z" fill="black"/>
<g id="Vector_2">
<path d="M11.2105 11.2207C11.3604 11.2016 11.6491 11.2001 11.8052 11.2C13.8261 11.2038 15.7608 12.0361 17.1751 13.5101C18.1199 14.477 18.729 15.504 19.0978 16.8264C19.4173 17.9716 19.3689 18.9683 19.3687 20.1423L19.3669 28.8L14.0043 28.798L14.0036 23.994L12.391 23.9907L9.60581 23.9801L9.60958 28.7992L4.28667 28.7983L4.29122 21.9775L4.28902 19.8802C4.2876 18.8991 4.25022 18.1607 4.46747 17.1814C4.74417 15.984 5.29607 14.871 6.07754 13.9346C7.36281 12.3636 9.21226 11.3857 11.2105 11.2207Z" fill="white"/>
<path d="M9.60596 16.067C11.0705 16.0797 12.535 16.084 13.9995 16.0797C14.0003 16.4289 14.0289 19.3795 13.973 19.4587L9.61012 19.4713L9.60596 16.067Z" fill="black"/>
<path d="M30.2404 11.4984C32.0631 11.489 33.8858 11.4889 35.7086 11.4982L35.7085 19.8326C35.7086 20.4539 35.7331 21.2993 35.6809 21.9027C35.5332 23.6504 34.7712 25.2913 33.5278 26.5394C32.1032 27.9752 30.2587 28.7875 28.2192 28.8C26.199 28.8037 24.2618 28.0041 22.8418 26.5804C21.8531 25.6083 21.1556 24.3837 20.8267 23.0425C20.6063 22.1359 20.6282 21.2593 20.6299 20.3351L20.6338 18.3175L20.6324 11.4982C22.4191 11.4788 24.2457 11.4927 26.0331 11.4961L26.0377 23.9036C27.437 23.9165 28.8363 23.9176 30.2356 23.907L30.2404 11.4984Z" fill="white"/>
</g>
</g>
</g>
<defs>
<clipPath id="clip0_165_399">
<rect width="40" height="40" rx="8.57143" fill="white"/>
</clipPath>
</defs>
</svg>
