<svg viewBox="0 0 19.9988 19.9988" fill="none" xmlns="http://www.w3.org/2000/svg">
<path fill-rule="evenodd" clip-rule="evenodd" d="M16.7676 3.1059C15.2794 1.48597 13.0754 0.676006 10.1554 0.676006H1.72C1.32235 0.676006 1 0.99836 1 1.39601V18.604C1 19.0017 1.32236 19.324 1.72 19.324H10.1554C13.0754 19.324 15.2794 18.514 16.7676 16.8941C18.2559 15.2554 19 12.9573 19 10C19 7.02386 18.2559 4.72583 16.7676 3.1059ZM8.01369 15.0104C7.6104 15.3022 7.07319 14.8949 7.24533 14.4278L8.22748 11.7627C8.31723 11.5191 8.20733 11.2472 7.97355 11.1345L5.29328 9.84149C4.9496 9.67569 4.90766 9.20293 5.2168 8.97924L10.4703 5.17773C10.8736 4.88592 11.4108 5.29323 11.2387 5.76032L10.2565 8.42545C10.1668 8.669 10.2767 8.94089 10.5105 9.05366L13.1907 10.3466C13.5344 10.5124 13.5764 10.9852 13.2672 11.2089L8.01369 15.0104Z" fill="url(#paint0_linear_0_6)"/>
<defs>
<linearGradient id="paint0_linear_0_6" x1="10" y1="0.676006" x2="10" y2="19.324" gradientUnits="userSpaceOnUse">
<stop stop-color="#B377FF"/>
<stop offset="1" stop-color="#7032F4"/>
</linearGradient>
</defs>
</svg>
